# xmcd
#
# Track frame offsets:
#	150
#	13388
#	31463
#	48076
#	72339
#	92552
#	108752
#	128177
#	141077
#	155890
#	170590
#	186603
#
# Disc length: 2721 seconds
#
# Revision: 0
# Processed by: cddbd v1.4PL0 Copyright (c) Steve Scherf et al.
# Submitted via: EasyCDDAExtractor 4.6.0.1
#
DISCID=ab0a9f0c
DTITLE=LUCINDA WILLIAMS - Sweet Old World Demos 
DYEAR=1900
DGENRE=
TTITLE0=Six Blocks Away 
TTITLE1=Something About What Happens When We Talk 
TTITLE2=Sidewalks Of The City 
TTITLE3=Hot Blood 
TTITLE4=Little Angel, Little Brother 
TTITLE5=What You Don't Know 
TTITLE6=Sweet Old World 
TTITLE7=Prove My Love 
TTITLE8=Drivin' On A Dead-End Street 
TTITLE9=Lines Around Your Eyes 
TTITLE10=Pineola 
TTITLE11=Which Will
EXTD=
EXTT0=
EXTT1=
EXTT2=
EXTT3=
EXTT4=
EXTT5=
EXTT6=
EXTT7=
EXTT8=
EXTT9=
EXTT10=
EXTT11=
PLAYORDER=
